<?xml version="1.0" encoding="utf-8"?>
<!-- Generator: Adobe Illustrator 19.0.0, SVG Export Plug-In . SVG Version: 6.00 Build 0)  -->
<svg version="1.1" id="Layer_1" xmlns="http://www.w3.org/2000/svg" xmlns:xlink="http://www.w3.org/1999/xlink" x="0px" y="0px"
	 width="1400px" height="980px" viewBox="0 0 1400 980" enable-background="new 0 0 1400 980" xml:space="preserve">
<g id="XMLID_1_">
	<g id="XMLID_4_">
		<g id="XMLID_158_">
			<path id="XMLID_477_" fill="#E15C4B" d="M326.5,443.1H171.3c-14.2,0-25.9-11.6-25.9-25.9V262c0-14.2,11.6-25.9,25.9-25.9h155.2
				c14.2,0,25.9,11.6,25.9,25.9v155.2C352.3,431.4,340.7,443.1,326.5,443.1z"/>
		</g>
	</g>
	<g id="XMLID_2_">
		<g id="XMLID_179_">
			<path id="XMLID_5_" fill="#2D3E50" d="M326.5,451.2H171.3c-18.8,0-34.1-15.3-34.1-34.1V262c0-18.8,15.3-34.1,34.1-34.1h155.2
				c18.8,0,34.1,15.3,34.1,34.1v155.2C360.5,436,345.3,451.2,326.5,451.2z M171.3,244.3c-9.7,0-17.7,7.9-17.7,17.7v155.2
				c0,9.7,7.9,17.7,17.7,17.7h155.2c9.7,0,17.7-7.9,17.7-17.7V262c0-9.7-7.9-17.7-17.7-17.7H171.3z"/>
		</g>
	</g>
	<g id="XMLID_3_">
		<g id="XMLID_6_">
			<g id="XMLID_7_">
				<circle id="XMLID_476_" fill="#FFFFFF" cx="198.5" cy="290.7" r="17.8"/>
			</g>
		</g>
		<g id="XMLID_8_">
			<g id="XMLID_9_">
				<circle id="XMLID_475_" fill="#FFFFFF" cx="299.3" cy="290.7" r="17.8"/>
			</g>
		</g>
		<g id="XMLID_10_">
			<g id="XMLID_11_">
				<circle id="XMLID_474_" fill="#FFFFFF" cx="249" cy="339.6" r="17.8"/>
			</g>
		</g>
		<g id="XMLID_12_">
			<g id="XMLID_13_">
				<circle id="XMLID_473_" fill="#FFFFFF" cx="198.5" cy="388.5" r="17.8"/>
			</g>
		</g>
		<g id="XMLID_14_">
			<g id="XMLID_15_">
				<circle id="XMLID_472_" fill="#FFFFFF" cx="299.3" cy="388.5" r="17.8"/>
			</g>
		</g>
	</g>
</g>
<g id="XMLID_16_">
	<g id="XMLID_24_">
		<g id="XMLID_18_">
			<rect id="XMLID_471_" x="460.7" y="196.8" fill="#FFFFFF" width="191.3" height="275.4"/>
		</g>
	</g>
	<g id="XMLID_17_">
		<g id="XMLID_161_">
			<path id="XMLID_20_" fill="#2D3E50" d="M652,480.4H460.7c-4.5,0-8.2-3.7-8.2-8.2V196.8c0-4.5,3.7-8.2,8.2-8.2H652
				c4.5,0,8.2,3.7,8.2,8.2v275.4C660.2,476.7,656.5,480.4,652,480.4z M468.9,464h174.9V205H468.9V464z"/>
		</g>
	</g>
	<g id="XMLID_19_">
		<g id="XMLID_123_">
			<path id="XMLID_470_" fill="#E15C4B" d="M551.8,293.4l-20.2,32.9c-1.1,1.8-1.1,4,0.1,5.7l20.2,31.6c2.1,3.3,7,3.3,9.1,0
				l20.2-31.6c1.1-1.7,1.1-4,0.1-5.7L561,293.4C558.9,290,553.9,290,551.8,293.4z"/>
		</g>
	</g>
	<g id="XMLID_21_">
		<g id="XMLID_22_">
			<g id="XMLID_23_">
				<g id="XMLID_98_">
					<path id="XMLID_469_" fill="#E15C4B" d="M493.3,256.3l-9.6,15.6c-0.5,0.8-0.5,1.9,0,2.7l9.6,15c1,1.6,3.3,1.6,4.3,0l9.6-15
						c0.5-0.8,0.5-1.9,0-2.7l-9.6-15.6C496.6,254.7,494.3,254.7,493.3,256.3z"/>
				</g>
			</g>
			<g id="XMLID_25_">
				<g id="XMLID_33_">
					<g id="XMLID_27_">
						<path id="XMLID_28_" fill="#E15C4B" d="M490.7,240.5l-2.2,8.1h-7.4l9.6-31.6h9.4l9.8,31.6h-7.7l-2.4-8.1H490.7z M498.7,235.2
							l-2-6.7c-0.6-1.9-1.1-4.2-1.6-6.1h-0.1c-0.5,1.9-0.9,4.3-1.5,6.1l-1.9,6.7H498.7z"/>
					</g>
				</g>
			</g>
		</g>
		<g id="XMLID_26_">
			<g id="XMLID_36_">
				<g id="XMLID_93_">
					<path id="XMLID_468_" fill="#E15C4B" d="M619.5,414.3l9.6-15.6c0.5-0.8,0.5-1.9,0-2.7l-9.6-15c-1-1.6-3.3-1.6-4.3,0l-9.6,15
						c-0.5,0.8-0.5,1.9,0,2.7l9.6,15.6C616.1,415.9,618.5,415.9,619.5,414.3z"/>
				</g>
			</g>
			<g id="XMLID_29_">
				<g id="XMLID_32_">
					<g id="XMLID_31_">
						<path fill="#E15C4B" d="M622,430.1l2.2-8.1h7.4l-9.6,31.6h-9.4l-9.8-31.6h7.7l2.4,8.1H622z M614,435.4l2,6.7
							c0.6,1.9,1.1,4.2,1.6,6.1h0.1c0.5-1.9,0.9-4.3,1.5-6.1l1.9-6.7H614z"/>
					</g>
				</g>
			</g>
		</g>
	</g>
</g>
<g id="XMLID_30_">
	<g id="XMLID_37_">
		<g id="XMLID_38_">
			<circle id="XMLID_467_" fill="#FFFFFF" cx="862.8" cy="339.6" r="119.7"/>
		</g>
	</g>
	<g id="XMLID_39_">
		<g id="XMLID_94_">
			<path id="XMLID_42_" fill="#2D3E50" d="M862.8,467.5c-70.5,0-127.9-57.4-127.9-127.9s57.4-127.9,127.9-127.9
				s127.9,57.4,127.9,127.9S933.3,467.5,862.8,467.5z M862.8,228.1c-61.5,0-111.5,50-111.5,111.5s50,111.5,111.5,111.5
				s111.5-50,111.5-111.5S924.3,228.1,862.8,228.1z"/>
		</g>
	</g>
	<g id="XMLID_41_">
		<g id="XMLID_43_">
			<g id="XMLID_54_">
				<g id="XMLID_45_">
					<path id="XMLID_46_" fill="#FBB256" d="M862.8,428.4c-48.9,0-88.8-39.8-88.8-88.8s39.8-88.8,88.8-88.8
						c48.9,0,88.8,39.8,88.8,88.8S911.8,428.4,862.8,428.4z M862.8,262.4c-42.6,0-77.2,34.6-77.2,77.2s34.6,77.2,77.2,77.2
						c42.6,0,77.2-34.6,77.2-77.2S905.4,262.4,862.8,262.4z"/>
				</g>
			</g>
		</g>
	</g>
	<g id="XMLID_44_">
		<g id="XMLID_92_">
			<path id="XMLID_466_" fill="#FBB256" d="M862.8,274.7c-35.8,0-64.9,29.1-64.9,64.9c0,35.8,29.1,64.9,64.9,64.9
				s64.9-29.1,64.9-64.9C927.7,303.8,898.6,274.7,862.8,274.7z"/>
		</g>
	</g>
	<g id="XMLID_47_">
		<g id="XMLID_48_">
			<g id="XMLID_49_">
				<path id="XMLID_50_" fill="#2D3E50" d="M883,311v8.4l-23.6,48.7h-14.2l23.6-46V322h-26.2v-11H883z"/>
			</g>
		</g>
	</g>
</g>
<g id="XMLID_52_">
	<g id="XMLID_53_">
		<circle id="XMLID_465_" fill="#FFFFFF" cx="248.9" cy="663.5" r="119.7"/>
	</g>
	<g id="XMLID_55_">
		<g id="XMLID_77_">
			<g id="XMLID_90_">
				<path id="XMLID_464_" fill="#FBB256" d="M197.4,742.9l-14.2,14.2c13.5,9.5,29,16.1,45.9,19.1V756
					C217.6,753.6,206.9,749.1,197.4,742.9z"/>
			</g>
		</g>
		<g id="XMLID_78_">
			<g id="XMLID_88_">
				<path id="XMLID_463_" fill="#FBB256" d="M229.2,571v-20.1c-16.8,2.9-32.4,9.6-45.9,19l14.2,14.2
					C207.1,578,217.7,573.4,229.2,571z"/>
			</g>
		</g>
		<g id="XMLID_79_">
			<g id="XMLID_87_">
				<path id="XMLID_462_" fill="#FBB256" d="M300.4,584.2l14.2-14.2c-13.5-9.5-29-16.1-45.9-19.1V571
					C280.2,573.5,290.9,578,300.4,584.2z"/>
			</g>
		</g>
		<g id="XMLID_81_">
			<g id="XMLID_86_">
				<path id="XMLID_461_" fill="#FBB256" d="M156.3,683.2h-20.1c2.9,16.8,9.6,32.4,19,45.9l14.2-14.2
					C163.3,705.4,158.8,694.7,156.3,683.2z"/>
			</g>
		</g>
		<g id="XMLID_82_">
			<g id="XMLID_85_">
				<path id="XMLID_460_" fill="#FBB256" d="M341.4,643.9h20.1c-2.9-16.8-9.6-32.4-19-45.9l-14.2,14.2
					C334.5,621.7,339,632.4,341.4,643.9z"/>
			</g>
		</g>
		<g id="XMLID_83_">
			<g id="XMLID_80_">
				<path id="XMLID_459_" fill="#FBB256" d="M341.4,683.4c-2.5,11.5-7,22.1-13.2,31.6l14.2,14.2c9.5-13.5,16.1-29,19.1-45.9H341.4z"
					/>
			</g>
		</g>
		<g id="XMLID_84_">
			<g id="XMLID_70_">
				<path id="XMLID_458_" fill="#FBB256" d="M268.6,756.1v20.1c16.8-2.9,32.4-9.6,45.9-19l-14.2-14.2
					C290.7,749.1,280,753.6,268.6,756.1z"/>
			</g>
		</g>
		<g id="XMLID_89_">
			<g id="XMLID_69_">
				<path id="XMLID_457_" fill="#FBB256" d="M169.6,612.1l-14.2-14.2c-9.5,13.5-16.1,29-19.1,45.9h20.1
					C158.8,632.3,163.4,621.6,169.6,612.1z"/>
			</g>
		</g>
		<g id="XMLID_101_">
			<g id="XMLID_58_">
				<path id="XMLID_456_" fill="#2D3E50" d="M197.5,584.1l-14.2-14.2c-10.9,7.6-20.3,17.1-28,27.9l14.2,14.2
					C176.8,600.9,186.4,591.4,197.5,584.1z"/>
			</g>
		</g>
		<g id="XMLID_102_">
			<g id="XMLID_59_">
				<path id="XMLID_455_" fill="#2D3E50" d="M154.3,663.5c0-6.8,0.7-13.4,2.1-19.8h-20.1c-1.1,6.4-1.8,13.1-1.8,19.8
					c0,6.7,0.6,13.3,1.7,19.7h20.1C155,676.9,154.3,670.3,154.3,663.5z"/>
			</g>
		</g>
		<g id="XMLID_103_">
			<g id="XMLID_60_">
				<path id="XMLID_454_" fill="#2D3E50" d="M300.2,742.9l14.2,14.2c10.9-7.6,20.3-17.1,28-27.9L328.2,715
					C320.9,726.2,311.4,735.7,300.2,742.9z"/>
			</g>
		</g>
		<g id="XMLID_104_">
			<g id="XMLID_61_">
				<path id="XMLID_453_" fill="#2D3E50" d="M343.5,663.5c0,6.8-0.7,13.4-2.1,19.8h20.1c1.1-6.4,1.8-13.1,1.8-19.8
					c0-6.7-0.6-13.3-1.7-19.7h-20.1C342.8,650.2,343.5,656.8,343.5,663.5z"/>
			</g>
		</g>
		<g id="XMLID_105_">
			<g id="XMLID_62_">
				<path id="XMLID_452_" fill="#2D3E50" d="M328.3,612.2l14.2-14.2c-7.6-10.9-17.1-20.3-27.9-28l-14.2,14.2
					C311.5,591.5,321,601,328.3,612.2z"/>
			</g>
		</g>
		<g id="XMLID_106_">
			<g id="XMLID_63_">
				<path id="XMLID_451_" fill="#2D3E50" d="M248.9,758.2c-6.8,0-13.4-0.7-19.8-2.1v20.1c6.4,1.1,13.1,1.8,19.8,1.8
					c6.7,0,13.3-0.6,19.7-1.7v-20.1C262.2,757.4,255.6,758.2,248.9,758.2z"/>
			</g>
		</g>
		<g id="XMLID_107_">
			<g id="XMLID_65_">
				<path id="XMLID_450_" fill="#2D3E50" d="M169.5,714.9l-14.2,14.2c7.6,10.9,17.1,20.3,27.9,28l14.2-14.2
					C186.2,735.6,176.7,726.1,169.5,714.9z"/>
			</g>
		</g>
		<g id="XMLID_108_">
			<g id="XMLID_66_">
				<path id="XMLID_449_" fill="#2D3E50" d="M248.9,568.9c6.8,0,13.4,0.7,19.8,2.1v-20.1c-6.4-1.1-13.1-1.8-19.8-1.8
					c-6.7,0-13.3,0.6-19.7,1.7V571C235.6,569.7,242.1,568.9,248.9,568.9z"/>
			</g>
		</g>
	</g>
	<g id="XMLID_76_">
		<path id="XMLID_205_" fill="#2D3E50" d="M248.9,791.4c-70.5,0-127.9-57.4-127.9-127.9s57.4-127.9,127.9-127.9
			c70.5,0,127.9,57.4,127.9,127.9S319.4,791.4,248.9,791.4z M248.9,552.1c-61.5,0-111.5,50-111.5,111.5S187.4,775,248.9,775
			c61.5,0,111.5-50,111.5-111.5S310.4,552.1,248.9,552.1z"/>
	</g>
	<g id="XMLID_56_">
		<g id="XMLID_67_">
			<path id="XMLID_68_" fill="#2D3E50" d="M248.9,748.4c-46.8,0-84.9-38.1-84.9-84.9s38.1-84.9,84.9-84.9s84.9,38.1,84.9,84.9
				S295.7,748.4,248.9,748.4z M248.9,586.9c-42.3,0-76.7,34.4-76.7,76.7c0,42.3,34.4,76.7,76.7,76.7c42.3,0,76.7-34.4,76.7-76.7
				C325.5,621.3,291.2,586.9,248.9,586.9z"/>
		</g>
	</g>
	<g id="XMLID_73_">
		<g id="XMLID_74_">
			<path id="XMLID_91_" fill="#2D3E50" d="M242.5,712.4V701c-8-0.4-15.8-2.5-20.4-5.2l3.6-14c5,2.8,12.1,5.3,19.9,5.3
				c6.8,0,11.5-2.6,11.5-7.4c0-4.6-3.8-7.4-12.7-10.4c-12.8-4.3-21.6-10.3-21.6-21.9c0-10.5,7.4-18.8,20.2-21.3v-11.4h11.7v10.5
				c8,0.4,13.4,2,17.4,4l-3.5,13.5c-3.1-1.3-8.6-4.1-17.3-4.1c-7.8,0-10.3,3.4-10.3,6.7c0,4,4.2,6.5,14.4,10.3
				c14.3,5,20,11.6,20,22.4c0,10.7-7.5,19.8-21.3,22.2v12.2H242.5z"/>
		</g>
	</g>
</g>
<g id="XMLID_99_">
	<g id="XMLID_100_">
		<g id="XMLID_109_">
			<rect id="XMLID_448_" x="418.4" y="614.2" fill="#E15C4B" width="275.9" height="138.1"/>
		</g>
	</g>
	<g id="XMLID_110_">
		<g id="XMLID_111_">
			<path id="XMLID_112_" fill="#2D3E50" d="M694.3,760.5H418.4c-4.5,0-8.2-3.7-8.2-8.2V614.2c0-4.5,3.7-8.2,8.2-8.2h275.9
				c4.5,0,8.2,3.7,8.2,8.2v138.1C702.5,756.8,698.9,760.5,694.3,760.5z M426.6,744.1h259.5V622.4H426.6V744.1z"/>
		</g>
	</g>
	<g id="XMLID_115_">
		<g id="XMLID_116_">
			<g id="XMLID_117_">
				<path id="XMLID_447_" fill="#FFFFFF" d="M503.4,726h-55.7c-3.5,0-6.3-2.8-6.3-6.3v-72.9c0-3.5,2.8-6.3,6.3-6.3h55.7
					c3.5,0,6.3,2.8,6.3,6.3v72.9C509.8,723.1,506.9,726,503.4,726z"/>
			</g>
		</g>
		<g id="XMLID_118_">
			<g id="XMLID_119_">
				<path id="XMLID_446_" fill="#FFFFFF" d="M584.2,726h-55.7c-3.5,0-6.3-2.8-6.3-6.3v-72.9c0-3.5,2.8-6.3,6.3-6.3h55.7
					c3.5,0,6.3,2.8,6.3,6.3v72.9C590.5,723.1,587.7,726,584.2,726z"/>
			</g>
		</g>
		<g id="XMLID_120_">
			<g id="XMLID_121_">
				<path id="XMLID_445_" fill="#FFFFFF" d="M665,726h-55.7c-3.5,0-6.3-2.8-6.3-6.3v-72.9c0-3.5,2.8-6.3,6.3-6.3H665
					c3.5,0,6.3,2.8,6.3,6.3v72.9C671.3,723.1,668.5,726,665,726z"/>
			</g>
		</g>
	</g>
	<g id="XMLID_122_">
		<g id="XMLID_124_">
			<g id="XMLID_125_">
				<path id="XMLID_126_" fill="#2D3E50" d="M491.4,661v6.6L473,705.7h-11.1l18.4-36v-0.1h-20.5V661H491.4z"/>
			</g>
		</g>
	</g>
	<g id="XMLID_128_">
		<g id="XMLID_129_">
			<g id="XMLID_130_">
				<path id="XMLID_131_" fill="#2D3E50" d="M572.2,661v6.6l-18.4,38.1h-11.1l18.4-36v-0.1h-20.5V661H572.2z"/>
			</g>
		</g>
	</g>
	<g id="XMLID_133_">
		<g id="XMLID_134_">
			<g id="XMLID_135_">
				<path id="XMLID_136_" fill="#2D3E50" d="M652.9,661v6.6l-18.4,38.1h-11.1l18.4-36v-0.1h-20.5V661H652.9z"/>
			</g>
		</g>
	</g>
</g>
<g id="XMLID_138_">
	<g id="XMLID_139_">
		<rect id="XMLID_444_" x="1076.8" y="196.8" fill="#FFFFFF" width="148.7" height="275.4"/>
	</g>
	<g id="XMLID_140_">
		<path id="XMLID_202_" fill="#2D3E50" d="M1216,480.4h-129.8c-4.5,0-8.2-3.7-8.2-8.2V196.8c0-4.5,3.7-8.2,8.2-8.2H1216
			c4.5,0,8.2,3.7,8.2,8.2v275.4C1224.2,476.7,1220.5,480.4,1216,480.4z M1094.4,464h113.4V205h-113.4V464z"/>
	</g>
	<g id="XMLID_141_">
		<rect id="XMLID_201_" x="1086.2" y="331.4" fill="#2D3E50" width="129.8" height="16.4"/>
	</g>
	<g id="XMLID_142_">
		<circle id="XMLID_443_" fill="#E15C4B" cx="1151.1" cy="267.3" r="31.2"/>
	</g>
	<g id="XMLID_143_">
		<g id="XMLID_144_">
			<circle id="XMLID_442_" fill="#E15C4B" cx="1119.7" cy="435.9" r="13.1"/>
		</g>
		<g id="XMLID_145_">
			<circle id="XMLID_441_" fill="#E15C4B" cx="1151.1" cy="404.5" r="13.1"/>
		</g>
		<g id="XMLID_146_">
			<circle id="XMLID_440_" fill="#E15C4B" cx="1182.6" cy="373" r="13.1"/>
		</g>
	</g>
</g>
<g id="XMLID_147_">
	<g id="XMLID_151_">
		<circle id="XMLID_439_" fill="#FFFFFF" cx="862.8" cy="661" r="119.7"/>
	</g>
	<g id="XMLID_150_">
		<path id="XMLID_186_" fill="#2D3E50" d="M862.8,788.9c-70.5,0-127.9-57.4-127.9-127.9c0-70.5,57.4-127.9,127.9-127.9
			S990.7,590.5,990.7,661C990.7,731.5,933.3,788.9,862.8,788.9z M862.8,549.5c-61.5,0-111.5,50-111.5,111.5
			c0,61.5,50,111.5,111.5,111.5s111.5-50,111.5-111.5C974.3,599.6,924.3,549.5,862.8,549.5z"/>
	</g>
	<g id="XMLID_148_">
		<g id="XMLID_149_">
			<g id="XMLID_152_">
				<path id="XMLID_438_" fill="#2D3E50" d="M917.7,608l15.6-15.1c-12.6-13-28.6-22.5-46.7-27l-5.3,21.1
					C895.4,590.5,907.9,597.9,917.7,608z"/>
			</g>
		</g>
		<g id="XMLID_153_">
			<g id="XMLID_154_">
				<path id="XMLID_437_" fill="#2D3E50" d="M939.2,661c0,7.3-1,14.3-3,21l20.9,6c2.5-8.6,3.8-17.6,3.8-27c0-9.4-1.3-18.4-3.8-27
					l-20.9,6C938.1,646.7,939.2,653.7,939.2,661z"/>
			</g>
		</g>
		<g id="XMLID_155_">
			<g id="XMLID_156_">
				<path id="XMLID_436_" fill="#2D3E50" d="M881.3,735.1l5.3,21.1c18.1-4.5,34.1-14.1,46.7-27l-15.6-15.1
					C907.9,724.2,895.4,731.6,881.3,735.1z"/>
			</g>
		</g>
		<g id="XMLID_157_">
			<g id="XMLID_159_">
				<path id="XMLID_435_" fill="#2D3E50" d="M844.3,587l-5.3-21.1c-18.1,4.5-34.1,14.1-46.7,27L808,608
					C817.7,597.9,830.3,590.5,844.3,587z"/>
			</g>
		</g>
		<g id="XMLID_160_">
			<g id="XMLID_162_">
				<path id="XMLID_434_" fill="#2D3E50" d="M808,714.1l-15.6,15.1c12.6,13,28.6,22.5,46.7,27l5.3-21.1
					C830.3,731.6,817.7,724.2,808,714.1z"/>
			</g>
		</g>
		<g id="XMLID_163_">
			<g id="XMLID_165_">
				<path id="XMLID_433_" fill="#2D3E50" d="M786.5,661c0-7.3,1-14.3,3-21l-20.9-6c-2.5,8.6-3.8,17.6-3.8,27c0,9.4,1.3,18.4,3.8,27
					l20.9-6C787.5,675.4,786.5,668.3,786.5,661z"/>
			</g>
		</g>
		<g id="XMLID_166_">
			<g id="XMLID_167_">
				<path id="XMLID_432_" fill="#E15C4B" d="M862.8,584.7c6.4,0,12.6,0.8,18.5,2.3l5.3-21.1c-7.6-1.9-15.6-2.9-23.8-2.9
					c-8.2,0-16.2,1-23.8,2.9l5.3,21.1C850.2,585.5,856.4,584.7,862.8,584.7z"/>
			</g>
		</g>
		<g id="XMLID_168_">
			<g id="XMLID_169_">
				<path id="XMLID_431_" fill="#E15C4B" d="M808,608l-15.6-15.1c-11,11.4-19.3,25.5-23.8,41.2l20.9,6
					C792.9,627.8,799.4,616.9,808,608z"/>
			</g>
		</g>
		<g id="XMLID_170_">
			<g id="XMLID_171_">
				<path id="XMLID_430_" fill="#E15C4B" d="M789.4,682l-20.9,6c4.5,15.7,12.8,29.7,23.8,41.1l15.6-15.1
					C799.4,705.2,792.9,694.2,789.4,682z"/>
			</g>
		</g>
		<g id="XMLID_172_">
			<g id="XMLID_173_">
				<path id="XMLID_429_" fill="#E15C4B" d="M862.8,737.4c-6.4,0-12.6-0.8-18.5-2.3l-5.3,21.1c7.6,1.9,15.6,2.9,23.8,2.9
					c8.2,0,16.2-1,23.8-2.9l-5.3-21.1C875.4,736.6,869.2,737.4,862.8,737.4z"/>
			</g>
		</g>
		<g id="XMLID_174_">
			<g id="XMLID_175_">
				<path id="XMLID_428_" fill="#E15C4B" d="M936.2,682c-3.5,12.2-9.9,23.1-18.5,32l15.6,15.1c11-11.4,19.3-25.5,23.8-41.2
					L936.2,682z"/>
			</g>
		</g>
		<g id="XMLID_176_">
			<g id="XMLID_177_">
				<path id="XMLID_427_" fill="#E15C4B" d="M936.2,640l20.9-6c-4.5-15.7-12.8-29.7-23.8-41.1L917.7,608
					C926.3,616.9,932.7,627.8,936.2,640z"/>
			</g>
		</g>
	</g>
	<g id="XMLID_182_">
		<circle id="XMLID_426_" fill="#2D3E50" cx="862.8" cy="661" r="8.5"/>
	</g>
	<g id="XMLID_183_">
		<g id="XMLID_184_">
			<g id="XMLID_185_">
				<rect id="XMLID_425_" x="857.9" y="624.7" fill="#2D3E50" width="9.8" height="36.3"/>
			</g>
		</g>
		<g id="XMLID_187_">
			<circle id="XMLID_424_" fill="#2D3E50" cx="862.8" cy="624.7" r="7.1"/>
		</g>
	</g>
	<g id="XMLID_188_">
		<g id="XMLID_189_">
			<g id="XMLID_190_">
				<rect id="XMLID_423_" x="826.5" y="656.1" fill="#2D3E50" width="36.3" height="9.8"/>
			</g>
		</g>
		<g id="XMLID_191_">
			<circle id="XMLID_422_" fill="#2D3E50" cx="826.5" cy="661" r="7.1"/>
		</g>
	</g>
	<g id="XMLID_192_">
		<g id="XMLID_193_">
			<g id="XMLID_194_">
				<rect id="XMLID_421_" x="857.9" y="661" fill="#2D3E50" width="9.8" height="36.3"/>
			</g>
		</g>
		<g id="XMLID_197_">
			<circle id="XMLID_420_" fill="#2D3E50" cx="862.8" cy="697.4" r="7.1"/>
		</g>
	</g>
	<g id="XMLID_198_">
		<g id="XMLID_199_">
			<g id="XMLID_200_">
				<rect id="XMLID_419_" x="862.8" y="656.1" fill="#2D3E50" width="36.3" height="9.8"/>
			</g>
		</g>
		<g id="XMLID_208_">
			<circle id="XMLID_418_" fill="#2D3E50" cx="899.2" cy="661" r="7.1"/>
		</g>
	</g>
</g>
<g id="XMLID_209_">
	<g id="XMLID_210_">
		<g id="XMLID_222_">
			<circle id="XMLID_417_" fill="#FFFFFF" cx="1151.1" cy="663.5" r="119.7"/>
		</g>
		<g id="XMLID_211_">
			<g id="XMLID_219_">
				<path id="XMLID_416_" fill="#6DCEEF" d="M1099.6,742.9l-14.2,14.2c13.5,9.5,29,16.1,45.9,19.1V756
					C1119.8,753.6,1109.1,749.1,1099.6,742.9z"/>
			</g>
			<g id="XMLID_216_">
				<path id="XMLID_415_" fill="#6DCEEF" d="M1131.4,571v-20.1c-16.8,2.9-32.4,9.6-45.9,19l14.2,14.2
					C1109.3,578,1120,573.4,1131.4,571z"/>
			</g>
			<g id="XMLID_213_">
				<path id="XMLID_414_" fill="#6DCEEF" d="M1202.6,584.2l14.2-14.2c-13.5-9.5-29-16.1-45.9-19.1V571
					C1182.4,573.5,1193.1,578,1202.6,584.2z"/>
			</g>
			<g id="XMLID_212_">
				<path id="XMLID_413_" fill="#6DCEEF" d="M1058.6,683.2h-20.1c2.9,16.8,9.6,32.4,19,45.9l14.2-14.2
					C1065.5,705.4,1061,694.7,1058.6,683.2z"/>
			</g>
			<g id="XMLID_214_">
				<path id="XMLID_412_" fill="#6DCEEF" d="M1243.7,643.9h20.1c-2.9-16.8-9.6-32.4-19-45.9l-14.2,14.2
					C1236.7,621.7,1241.2,632.4,1243.7,643.9z"/>
			</g>
			<g id="XMLID_215_">
				<path id="XMLID_411_" fill="#6DCEEF" d="M1243.6,683.4c-2.5,11.5-7,22.1-13.2,31.6l14.2,14.2c9.5-13.5,16.1-29,19.1-45.9H1243.6
					z"/>
			</g>
			<g id="XMLID_217_">
				<path id="XMLID_410_" fill="#6DCEEF" d="M1170.8,756.1v20.1c16.8-2.9,32.4-9.6,45.9-19l-14.2-14.2
					C1192.9,749.1,1182.3,753.6,1170.8,756.1z"/>
			</g>
			<g id="XMLID_218_">
				<path id="XMLID_409_" fill="#6DCEEF" d="M1071.8,612.1l-14.2-14.2c-9.5,13.5-16.1,29-19.1,45.9h20.1
					C1061.1,632.3,1065.6,621.6,1071.8,612.1z"/>
			</g>
			<g id="XMLID_220_">
				<path id="XMLID_230_" fill="#2D3E50" d="M1099.8,584.1l-14.2-14.2c-10.9,7.6-20.3,17.1-28,27.9l14.2,14.2
					C1079.1,600.9,1088.6,591.4,1099.8,584.1z"/>
			</g>
			<g id="XMLID_221_">
				<path id="XMLID_229_" fill="#2D3E50" d="M1056.5,663.5c0-6.8,0.7-13.4,2.1-19.8h-20.1c-1.1,6.4-1.8,13.1-1.8,19.8
					c0,6.7,0.6,13.3,1.7,19.7h20.1C1057.2,676.9,1056.5,670.3,1056.5,663.5z"/>
			</g>
			<g id="XMLID_223_">
				<path id="XMLID_228_" fill="#2D3E50" d="M1202.5,742.9l14.2,14.2c10.9-7.6,20.3-17.1,28-27.9l-14.2-14.2
					C1223.2,726.2,1213.6,735.7,1202.5,742.9z"/>
			</g>
			<g id="XMLID_224_">
				<path id="XMLID_227_" fill="#2D3E50" d="M1245.7,663.5c0,6.8-0.7,13.4-2.1,19.8h20.1c1.1-6.4,1.8-13.1,1.8-19.8
					c0-6.7-0.6-13.3-1.7-19.7h-20.1C1245,650.2,1245.7,656.8,1245.7,663.5z"/>
			</g>
			<g id="XMLID_225_">
				<path id="XMLID_226_" fill="#2D3E50" d="M1230.5,612.2l14.2-14.2c-7.6-10.9-17.1-20.3-27.9-28l-14.2,14.2
					C1213.8,591.5,1223.3,601,1230.5,612.2z"/>
			</g>
			<g id="XMLID_231_">
				<path id="XMLID_232_" fill="#2D3E50" d="M1151.1,758.2c-6.8,0-13.4-0.7-19.8-2.1v20.1c6.4,1.1,13.1,1.8,19.8,1.8
					c6.7,0,13.3-0.6,19.7-1.7v-20.1C1164.4,757.4,1157.9,758.2,1151.1,758.2z"/>
			</g>
			<g id="XMLID_233_">
				<path id="XMLID_234_" fill="#2D3E50" d="M1071.7,714.9l-14.2,14.2c7.6,10.9,17.1,20.3,27.9,28l14.2-14.2
					C1088.5,735.6,1079,726.1,1071.7,714.9z"/>
			</g>
			<g id="XMLID_235_">
				<path id="XMLID_236_" fill="#2D3E50" d="M1151.1,568.9c6.8,0,13.4,0.7,19.8,2.1v-20.1c-6.4-1.1-13.1-1.8-19.8-1.8
					c-6.7,0-13.3,0.6-19.7,1.7V571C1137.8,569.7,1144.4,568.9,1151.1,568.9z"/>
			</g>
		</g>
		<g id="XMLID_237_">
			<path id="XMLID_238_" fill="#2D3E50" d="M1151.1,791.4c-70.5,0-127.9-57.4-127.9-127.9s57.4-127.9,127.9-127.9
				c70.5,0,127.9,57.4,127.9,127.9S1221.6,791.4,1151.1,791.4z M1151.1,552.1c-61.5,0-111.5,50-111.5,111.5s50,111.5,111.5,111.5
				c61.5,0,111.5-50,111.5-111.5S1212.6,552.1,1151.1,552.1z"/>
		</g>
		<g id="XMLID_241_">
			<g id="XMLID_242_">
				<path id="XMLID_243_" fill="#2D3E50" d="M1151.1,748.4c-46.8,0-84.9-38.1-84.9-84.9s38.1-84.9,84.9-84.9
					c46.8,0,84.9,38.1,84.9,84.9S1197.9,748.4,1151.1,748.4z M1151.1,586.9c-42.3,0-76.7,34.4-76.7,76.7c0,42.3,34.4,76.7,76.7,76.7
					c42.3,0,76.7-34.4,76.7-76.7C1227.8,621.3,1193.4,586.9,1151.1,586.9z"/>
			</g>
		</g>
	</g>
	<g id="XMLID_246_">
		<path id="XMLID_247_" fill="#2D3E50" d="M1151.2,623.9c0,0-44.1,27.6-39,49.6c5.1,22.1,28,12.5,28,12.5s-1.2,10-5.1,13.7h16h16
			c-3.8-3.7-5.1-13.7-5.1-13.7s23,9.6,28-12.5C1195.3,651.4,1151.2,623.9,1151.2,623.9z"/>
	</g>
</g>
</svg>
